<?xml version="1.0" encoding="utf-8"?>
<!-- Generator: Adobe Illustrator 16.0.0, SVG Export Plug-In . SVG Version: 6.00 Build 0)  -->
<!DOCTYPE svg PUBLIC "-//W3C//DTD SVG 1.1//EN" "http://www.w3.org/Graphics/SVG/1.1/DTD/svg11.dtd">
<svg version="1.1" id="Layer_1" xmlns="http://www.w3.org/2000/svg" xmlns:xlink="http://www.w3.org/1999/xlink" x="0px" y="0px"
	 width="501px" height="96px" viewBox="0 0 501 96" enable-background="new 0 0 501 96" xml:space="preserve">
<g>
	<path fill="#00AEEF" d="M16.46,70.102v-3.58h6.5V17.293h-6.5V13.7h35.212v-2.389h4.62v13.581h-4.536v-6.151H33.985v20.171H47.65
		v-5.815l4.623-0.086v16.843L47.65,49.94v-5.988H33.985v21.109H52.53v-6.318h4.611v11.359H16.46L16.46,70.102z M60.138,70.102
		h40.332V58.742h-4.609v6.318H77.652V17.293h6.41V13.7H60.138v3.593h6.486v49.229h-6.486V70.102L60.138,70.102z"/>
	<path d="M144.197,71.217c-18.039,0-30.854-12.135-30.854-29.142c0-16.836,12.815-29.403,29.997-29.403
		c5.564,0,9.408,0.769,14.36,2.905v-3.585h4.706v15.306H157.7v-5.475c-4.869-3.422-7.604-4.36-12.14-4.36
		c-11.88,0-20.162,9.914-20.162,24.099c0,13.843,9.14,24.615,20.941,24.615c4.265,0,7.343-0.941,11.36-3.414V56.27h4.785v11.365
		C155.219,70.275,150.688,71.217,144.197,71.217L144.197,71.217z M206.93,70.102h10.85v-3.668h-3.506
		c-1.707,0-2.727-0.773-4.701-3.764l-12.131-18.626c8.028-2.483,11.963-7.438,11.963-15.127c0-4.533-1.363-8.204-4.187-11.028
		c-3.078-3.081-7.181-4.189-14.528-4.189h-25.214v3.593h6.497v49.229h-6.497v3.58h23.935v-3.58h-6.421V44.985h2.313l12.821,20.076
		C201.031,69.6,201.889,70.102,206.93,70.102L206.93,70.102z M188.386,18.482c6.062,0,9.567,3.933,9.567,10.769
		c0,6.759-4.017,11.45-9.919,11.45h-5.044V18.482H188.386L188.386,18.482z M242.04,71.217c15.728,0,28.294-12.994,28.294-29.31
		c0-16.328-12.566-29.235-28.294-29.235c-15.724,0-28.201,12.908-28.201,29.235C213.838,58.223,226.316,71.217,242.04,71.217
		L242.04,71.217z M242.04,17.546c8.625,0,16.24,11.45,16.24,24.361c0,12.99-7.614,24.435-16.24,24.435
		c-8.55,0-16.153-11.445-16.153-24.435C225.886,28.996,233.489,17.546,242.04,17.546L242.04,17.546z M317.678,17.293h7.182V13.7
		h-19.32v3.593h6.758v35.801L284.611,13.7h-17.008v3.593h6.148l2.73,4.354v44.875h-7.094v3.58h19.326v-3.58h-6.766V29.166
		l29.75,41.877h5.979V17.293L317.678,17.293z M327.826,70.102h23.941v-3.58h-6.414V17.293h6.414V13.7h-23.941v3.593h6.498v49.229
		h-6.498V70.102L327.826,70.102z M371.762,71.217c9.996,0,17.092-6.838,17.092-16.576c0-3.332-0.766-6.156-2.389-8.812
		c-1.455-2.304-3.254-4.181-5.227-5.544c-0.928-0.69-3.408-2.224-7.334-4.788c-8.207-5.216-10.174-7.351-10.174-10.771
		c0-4.013,3.414-7.18,7.859-7.18c3.158,0,5.475,0.854,9.057,3.167v5.895h4.623V11.991h-4.623v2.563
		c-3.252-1.366-5.898-1.883-9.223-1.883c-10.434,0-17.352,6.244-17.352,15.645c0,3.76,1.107,7.18,3.244,9.655
		c2.221,2.562,3.246,3.422,11.621,8.724c7.951,5.128,10.438,7.86,10.438,11.706c0,4.438-3.85,7.607-9.148,7.607
		c-4.197,0-7.094-1.109-10.943-4.188v-6.33h-4.701v15.391h4.701v-2.99C363.211,70.199,366.809,71.217,371.762,71.217L371.762,71.217
		z M433.775,25.839h4.707V11.311h-4.707V13.7h-40.514v-2.389h-4.701v14.528h4.701v-7.098h14.787v47.78h-8.285v3.58h27.52v-3.58
		h-8.207v-47.78h14.699V25.839L433.775,25.839z M466.682,70.102h20.857v-3.58h-3.59l-21.203-54.618h-5.211l-22.053,54.618h-5.297
		v3.58h17.682v-3.58h-6.826l5.555-13.85h20.768l5.303,13.85h-5.984V70.102L466.682,70.102z M457.275,26.09l8.127,21.372h-16.756
		L457.275,26.09L457.275,26.09z"/>
	<path fill="#00AEEF" d="M121.36,87.689c-2.772,0-4.744-1.877-4.744-4.496c0-2.592,1.972-4.521,4.62-4.521
		c0.857,0,1.45,0.113,2.207,0.449v-0.559h0.728v2.354h-0.728v-0.832c-0.747-0.531-1.168-0.678-1.869-0.678
		c-1.823,0-3.103,1.525-3.103,3.711c0,2.127,1.409,3.787,3.227,3.787c0.649,0,1.128-0.146,1.745-0.523v-0.996h0.741v1.752
		C123.067,87.537,122.366,87.689,121.36,87.689L121.36,87.689z M154.356,87.689c2.407,0,4.349-2.008,4.349-4.518
		c0-2.516-1.942-4.5-4.349-4.5c-2.426,0-4.35,1.984-4.35,4.5C150.007,85.682,151.93,87.689,154.356,87.689L154.356,87.689z
		 M154.356,79.418c1.331,0,2.499,1.764,2.499,3.754c0,1.996-1.168,3.76-2.499,3.76c-1.331,0-2.5-1.764-2.5-3.76
		C151.857,81.182,153.025,79.418,154.356,79.418L154.356,79.418z M191.242,87.51h3.906v-0.551h-1.104v-7.574h1.104v-0.557h-2.607
		l-2.748,6.113l-3.121-6.113h-2.332v0.557h1.112v7.574h-1.112v0.551h3.051v-0.551h-1.109v-5.561l3.162,6.248l2.902-6.373v5.686
		h-1.104V87.51L191.242,87.51z M220.974,87.51h6.264v-1.752h-0.708v0.979h-2.856v-3.25h2.11V84.4l0.708-0.006v-2.592l-0.708,0.018
		v0.887h-2.11v-3.1h2.74v0.947h0.695v-2.1H226.4v0.373h-5.426v0.557h0.998v7.574h-0.998V87.51L220.974,87.51z M259.618,87.51h1.681
		v-0.563h-0.545c-0.268,0-0.422-0.119-0.727-0.584l-1.869-2.867c1.232-0.379,1.85-1.141,1.85-2.326c0-0.697-0.223-1.266-0.649-1.697
		c-0.474-0.477-1.112-0.645-2.239-0.645h-3.89v0.557h1.006v7.574h-1.006v0.551h3.694v-0.551h-0.992v-3.322h0.357l1.971,3.1
		C258.715,87.436,258.845,87.51,259.618,87.51L259.618,87.51z M256.762,79.559c0.934,0,1.475,0.611,1.475,1.66
		c0,1.039-0.625,1.77-1.525,1.77h-0.779v-3.43H256.762L256.762,79.559z M291.104,87.689c0.998,0,1.701-0.152,2.814-0.553v-1.752
		h-0.725v0.996c-0.631,0.377-1.104,0.523-1.762,0.523c-1.816,0-3.227-1.66-3.227-3.787c0-2.186,1.279-3.711,3.111-3.711
		c0.701,0,1.117,0.146,1.877,0.678v0.832h0.715v-2.354h-0.715v0.559c-0.773-0.336-1.363-0.449-2.221-0.449
		c-2.643,0-4.609,1.93-4.609,4.521C286.363,85.813,288.33,87.689,291.104,87.689L291.104,87.689z M319.801,87.51h3.688v-0.551
		h-0.994v-7.574h0.994v-0.557h-3.688v0.557h0.988v7.574h-0.988V87.51L319.801,87.51z M354.332,87.51h3.205v-0.551h-0.563
		l-3.26-8.412h-0.799l-3.396,8.412h-0.813v0.551h2.723v-0.551h-1.053l0.857-2.131h3.193l0.813,2.131h-0.908V87.51L354.332,87.51z
		 M352.871,80.732l1.258,3.295h-2.584L352.871,80.732L352.871,80.732z M382.816,87.51h6.213v-1.752h-0.715v0.979h-2.799v-7.352
		h0.982v-0.557h-3.682v0.557h1v7.574h-1V87.51L382.816,87.51z"/>
	<path fill="#231F20" d="M106.472,87.674h-1.68V12.417h1.68V87.674z"/>
</g>
</svg>
