<?xml version="1.0" encoding="utf-8"?>
<!-- Generator: Adobe Illustrator 16.0.0, SVG Export Plug-In . SVG Version: 6.00 Build 0)  -->
<!DOCTYPE svg PUBLIC "-//W3C//DTD SVG 1.1//EN" "http://www.w3.org/Graphics/SVG/1.1/DTD/svg11.dtd">
<svg version="1.1" id="Layer_1" xmlns="http://www.w3.org/2000/svg" xmlns:xlink="http://www.w3.org/1999/xlink" x="0px" y="0px"
	 width="199.564px" height="26.229px" viewBox="0 0 199.564 26.229" enable-background="new 0 0 199.564 26.229"
	 xml:space="preserve">
<g>
	<path fill="#FFFFFF" d="M14.743,23.526v-1.294h2.347V4.459h-2.347V3.162h12.713V2.3h1.668v4.903h-1.638V4.982H21.07v7.283h4.934
		v-2.1l1.669-0.031v6.082l-1.669,0.03v-2.161H21.07v7.621h6.695v-2.282h1.665v4.103L14.743,23.526L14.743,23.526z M30.513,23.526
		h14.562v-4.103H43.41v2.282h-6.574V4.459h2.314V3.162h-8.638v1.297h2.342v17.771h-2.342L30.513,23.526L30.513,23.526z"/>
	<path fill="#FFFFFF" d="M60.861,23.929c-6.513,0-11.14-4.382-11.14-10.521c0-6.078,4.627-10.615,10.828-10.615
		c2.011,0,3.396,0.275,5.187,1.049V2.545h1.699V8.07h-1.699V6.095c-1.758-1.235-2.745-1.574-4.383-1.574
		c-4.289,0-7.279,3.579-7.279,8.7c0,4.999,3.3,8.888,7.561,8.888c1.54,0,2.651-0.34,4.104-1.231v-2.344h1.728v4.104
		C64.841,23.589,63.205,23.929,60.861,23.929L60.861,23.929z M83.511,23.526h3.917v-1.323h-1.268c-0.616,0-0.982-0.278-1.697-1.358
		l-4.38-6.725c2.898-0.897,4.319-2.688,4.319-5.462c0-1.639-0.492-2.964-1.512-3.981c-1.111-1.112-2.595-1.513-5.245-1.513h-9.104
		V4.46h2.348v17.771h-2.348v1.294h8.644v-1.294h-2.318v-7.772h0.835l4.629,7.248C81.381,23.344,81.69,23.526,83.511,23.526
		L83.511,23.526z M76.815,4.889c2.188,0,3.454,1.42,3.454,3.888c0,2.44-1.45,4.136-3.581,4.136h-1.821V4.889H76.815L76.815,4.889z
		 M96.187,23.929c5.678,0,10.215-4.692,10.215-10.582c0-5.896-4.537-10.556-10.215-10.556c-5.679,0-10.184,4.66-10.184,10.556
		C86.005,19.236,90.51,23.929,96.187,23.929L96.187,23.929z M96.187,4.551c3.112,0,5.861,4.134,5.861,8.796
		c0,4.688-2.749,8.822-5.861,8.822c-3.087,0-5.832-4.134-5.832-8.822C90.354,8.685,93.1,4.551,96.187,4.551L96.187,4.551z
		 M123.495,4.459h2.592V3.162h-6.975v1.297h2.438v12.926l-9.994-14.224h-6.143v1.297h2.221l0.986,1.572V22.23h-2.563v1.294h6.979
		V22.23h-2.443V8.746l10.742,15.12h2.158L123.495,4.459L123.495,4.459z M127.159,23.526h8.643v-1.294h-2.313V4.459h2.313V3.162
		h-8.643v1.297h2.346v17.771h-2.346V23.526L127.159,23.526z M143.021,23.929c3.607,0,6.172-2.469,6.172-5.985
		c0-1.201-0.277-2.222-0.863-3.181c-0.523-0.832-1.174-1.51-1.887-2.002c-0.334-0.25-1.23-0.804-2.648-1.729
		c-2.963-1.885-3.672-2.653-3.672-3.89c0-1.449,1.232-2.592,2.838-2.592c1.141,0,1.979,0.309,3.271,1.144v2.13h1.668V2.545h-1.668
		V3.47c-1.174-0.493-2.131-0.68-3.33-0.68c-3.77,0-6.268,2.254-6.268,5.646c0,1.357,0.4,2.594,1.174,3.486
		c0.803,0.925,1.172,1.235,4.193,3.149c2.871,1.852,3.771,2.838,3.771,4.227c0,1.603-1.393,2.746-3.303,2.746
		c-1.518,0-2.563-0.4-3.951-1.512V18.25h-1.697v5.557h1.697v-1.08C139.935,23.561,141.233,23.929,143.021,23.929L143.021,23.929z
		 M165.411,7.545h1.699V2.3h-1.699v0.862h-14.627V2.3h-1.697v5.245h1.697V4.982h5.338v17.25h-2.99v1.294h9.938v-1.294h-2.963V4.982
		h5.307L165.411,7.545L165.411,7.545z M177.292,23.526h7.529v-1.294h-1.295L175.87,2.514h-1.881l-7.963,19.719h-1.912v1.294h6.385
		v-1.294h-2.465l2.006-5h7.498l1.914,5h-2.16V23.526L177.292,23.526z M173.896,7.636l2.934,7.716h-6.049L173.896,7.636
		L173.896,7.636z"/>
	<path fill="#FFFFFF" d="M47.241,23.526h-0.606V2.699h0.606V23.526z"/>
</g>
</svg>
