<?xml version="1.0" encoding="utf-8"?>
<!-- Generator: Adobe Illustrator 16.0.0, SVG Export Plug-In . SVG Version: 6.00 Build 0)  -->
<!DOCTYPE svg PUBLIC "-//W3C//DTD SVG 1.1//EN" "http://www.w3.org/Graphics/SVG/1.1/DTD/svg11.dtd">
<svg version="1.1" id="Layer_1" xmlns="http://www.w3.org/2000/svg" xmlns:xlink="http://www.w3.org/1999/xlink" x="0px" y="0px"
	 width="312px" height="96px" viewBox="0 0 312 96" enable-background="new 0 0 312 96" xml:space="preserve">
<g>
	<g>
		<rect x="85.147" y="73.78" fill="#D71921" width="215.892" height="13.407"/>
		<rect x="10.961" y="73.753" fill="#D71921" width="56.408" height="13.408"/>
	</g>
	<g>
		<path fill="#D71921" d="M105.051,27.955c-2.739-2.735-6.969-4.32-11.561-4.32c-4.936,0-8.02,1.499-10.932,4.407v-3.881H69.525
			v46.924L45.871,8.813H33.966L11.115,71.625h16.144l3.079-9.348h19.333l2.906,9.348h16.948v15.522h13.467V68.187
			c2.648,2.646,5.908,3.971,10.585,3.971c4.59,0,8.734-1.589,11.474-4.323c4.677-4.684,4.416-12.979,4.416-19.938
			C109.467,40.923,109.728,32.632,105.051,27.955z M34.67,49.385l5.642-16.753l5.298,16.753H34.67z M88.993,59.096
			c-5.38,0-6.001-4.32-6.001-11.2c0-6.879,0.621-11.21,6.001-11.21c5.383,0,6.001,4.331,6.001,11.21
			C94.994,54.775,94.376,59.096,88.993,59.096z"/>
		<g>
			<path fill="#D71921" d="M208.886,35.243V24.127h-7.495V8.82h-14.474v15.268c-2.049,0-4.717,0-7.065,0v12.105
				c0.556,0.006,1.155,0.013,1.835,0.026h5.23v21.514c0,6.532,4.233,14.024,14.736,14.024h7.232V59.586h-4.587
				c-1.945,0-2.908-1.06-2.908-2.911V35.243H208.886z"/>
			<g>
				<path fill="#D71921" d="M130.739,23.635c-12.445,0-21.091,8.834-21.091,24.36c0,20.472,11.922,24.162,22.41,24.162
					c8.819,0,13.59-2.651,18.444-7.501l-8.647-8.648c-2.563,2.565-4.761,3.971-9.797,3.971c-5.377,0-8.375-3.527-8.375-7.405h28.193
					v-6.447C151.877,33.688,144.494,23.635,130.739,23.635z M123.684,42.948c0-1.133,0.172-2.465,0.79-3.704
					c0.89-2.025,2.824-3.701,6.266-3.701c3.439,0,5.38,1.676,6.27,3.701c0.614,1.239,0.789,2.571,0.789,3.704H123.684z"/>
				<path fill="#D71921" d="M177.56,24.088c-4.947,0-9.207,1.845-11.319,3.954v-3.881h-14.118v47.464h14.472V43.222
					c0-5.383,3.917-6.169,5.815-6.536c2.086-0.393,3.031-0.506,6.772-0.492V24.088C178.619,24.088,178.069,24.088,177.56,24.088z"/>
			</g>
		</g>
		<g>
			<path fill="#D71921" d="M280.136,24.088c0,0-11.223,0-16.735,0v4.45v3.571v4.217c5.003-0.116,11.473-0.144,15.886-0.133
				c4.064,0.286,5.797,1.935,5.797,5.81v1.222h-9.61c-11.303,0-16.149,6.553-16.149,13.637c0,4.367,1.412,8.301,4.146,11.009
				c2.648,2.629,6.612,4.194,11.383,4.194c5.023,0,7.679-1.399,10.59-4.28v3.847h15.597V41.126
				C301.039,29.684,293.717,24.088,280.136,24.088z M285.083,53.979c0,2.271-0.36,3.754-1.409,4.714
				c-1.589,1.485-2.908,1.745-5.736,1.745c-3.185,0-4.764-1.825-4.764-3.924c0-2.192,1.766-3.761,4.594-3.761h7.315V53.979z"/>
			<path fill="#D71921" d="M261.451,24.088c-4.913,0-9.16,1.821-11.289,3.92v-3.847h-0.03h-14.11h-0.32v28.412
				c0,5.464-3.887,6.522-5.822,6.522c-1.949,0-5.826-1.059-5.826-6.522V24.161h-14.468v30.348c0,5.027,0.7,9.527,4.761,13.585
				c2.564,2.564,6.179,4.063,10.687,4.063c3.768,0,8.081-1.492,10.989-4.384v3.852h0.023h14.117h0.33V43.222
				c0-5.383,3.914-6.169,5.816-6.536c0.819-0.153,3.284-0.267,6.426-0.343v-4.794v-2.455v-5.006
				C262.271,24.088,261.835,24.088,261.451,24.088z"/>
		</g>
	</g>
</g>
</svg>
