<?xml version="1.0" encoding="utf-8"?>
<!-- Generator: Adobe Illustrator 16.0.0, SVG Export Plug-In . SVG Version: 6.00 Build 0)  -->
<!DOCTYPE svg PUBLIC "-//W3C//DTD SVG 1.1//EN" "http://www.w3.org/Graphics/SVG/1.1/DTD/svg11.dtd">
<svg version="1.1" id="Layer_1" xmlns="http://www.w3.org/2000/svg" xmlns:xlink="http://www.w3.org/1999/xlink" x="0px" y="0px"
	 width="312px" height="96px" viewBox="0 0 312 96" enable-background="new 0 0 312 96" xml:space="preserve">
<g>
	<path d="M39.537,71.221V24.85h-7.318v-7.997h23.612v7.997H48.51v46.371H39.537z"/>
	<path d="M58.752,71.221V16.853h20.136V25H67.649v13.804h8.368v8.064h-8.368v16.213h11.922v8.139H58.752z"/>
	<path d="M93.059,72.883c-8.071,0-11.987-5.428-11.987-13.723V29c0-7.844,3.916-13.733,11.987-13.733
		c9.427,0,11.771,8.972,11.771,13.733v6.183h-8.827V29c0-2.416,0-5.356-2.944-5.356c-3.168,0-3.168,3.388-3.168,5.356V59.16
		c0,1.949,0,5.275,3.168,5.275c2.944,0,2.944-2.484,2.944-5.275v-6.266h8.827v6.266C104.83,64.213,102.485,72.883,93.059,72.883z"/>
	<path d="M109.177,71.221V16.853h8.972v22.171h6.484V16.853h8.972v54.368h-8.972v-24.28h-6.484v24.28H109.177z"/>
	<path d="M138.003,71.221V16.853h8.217l8.001,24.36v-24.36h8.361v54.368h-7.532l-8.901-28.807v28.807H138.003z"/>
	<path d="M166.336,58.029V30.507c0-5.507,0.519-15.241,12.21-15.241c10.485,0,12.22,7.321,12.22,15.241v27.522
		c0,7.389-1.816,14.854-12.22,14.854C167.538,72.883,166.336,64.586,166.336,58.029z M175.309,27.262v31.974
		c0,3.092,0,5.5,3.237,5.5c3.247,0,3.247-2.258,3.247-5.5V27.262c0-1.96-0.528-3.925-3.247-3.925
		C175.459,23.337,175.309,25.905,175.309,27.262z"/>
	<path d="M194.083,71.221V16.853h8.976v46.079h11.24v8.289H194.083z"/>
	<path d="M214.751,58.029V30.507c0-5.507,0.53-15.241,12.221-15.241c10.482,0,12.217,7.321,12.217,15.241v27.522
		c0,7.389-1.81,14.854-12.217,14.854C215.96,72.883,214.751,64.586,214.751,58.029z M223.723,27.262v31.974c0,3.092,0,5.5,3.249,5.5
		c3.241,0,3.241-2.258,3.241-5.5V27.262c0-1.96-0.524-3.925-3.241-3.925C223.883,23.337,223.723,25.905,223.723,27.262z"/>
	<path d="M252.835,72.883c-4.596,0-10.477-2.789-10.477-12.516V28.541c0-5.357,2.032-13.274,11.984-13.274
		c7.091,0,11.617,5.361,11.617,13.274v5.806h-8.827v-6.327c0-1.586,0.078-4.682-2.938-4.682c-2.262,0-3.016,1.513-3.016,4.682
		v32.643c0,2.494,0.367,4.002,2.786,4.002c3.092,0,3.167-2.563,3.167-4.002v-9.575h-2.79v-7.084h11.617v27.217h-3.772l-1.659-3.393
		C259.702,68.963,257.211,72.883,252.835,72.883z"/>
	<path d="M274.448,71.221V49.881l-8.677-33.028h8.451l4.895,19.837l4.907-19.837h8.453l-8.686,33.028v21.339H274.448z"/>
</g>
<path fill="#F58220" d="M30.499,71.215H19.664v-1.738h10.835V71.215z"/>
<path fill="#F58220" d="M30.499,68.963H19.664V67.32l4.855-1.592h-4.855v-1.666h10.835v1.508l-5.746,1.766h5.746V68.963z"/>
<path fill="#F58220" d="M30.499,63.275H19.664v-3.898h1.621v2.107h2.742v-1.592h1.616v1.592h4.855V63.275z"/>
<path fill="#F58220" d="M27.835,58.863h-5.48c-1.103,0-3.039-0.107-3.039-2.439c0-2.088,1.456-2.43,3.039-2.43h5.48
	c1.472,0,2.96,0.361,2.96,2.43C30.795,58.619,29.142,58.863,27.835,58.863z M21.701,57.074h6.374c0.617,0,1.099,0,1.099-0.65
	c0-0.637-0.451-0.637-1.099-0.637h-6.374c-0.388,0-0.787,0.1-0.787,0.637C20.914,57.043,21.432,57.074,21.701,57.074z"/>
<path fill="#F58220" d="M30.499,53.164H19.664v-1.919c0-1.933,0.344-2.922,3.016-2.922c2.045,0,2.563,0.555,2.904,0.989l4.915-1.079
	v1.692l-4.482,0.995v0.453h4.482V53.164z M21.159,51.374h3.27v-0.305c0-0.814-0.47-0.955-1.565-0.955
	c-1.276,0-1.704,0.16-1.704,0.984V51.374z"/>
<path fill="#F58220" d="M30.499,47.499H19.664v-2.225l5.844-1.101l-5.844-1.097v-2.225h10.835v1.624h-6.691l6.691,1.199v0.991
	l-6.691,1.206h6.691V47.499z"/>
<path fill="#F58220" d="M30.499,40.222L19.664,38.48v-2.081l10.835-1.544v1.649l-2.197,0.236v1.541l2.197,0.253V40.222z
	 M21.964,37.455l4.771,0.614v-1.14L21.964,37.455z"/>
<path fill="#F58220" d="M30.499,33.569h-9.247v1.465h-1.588v-4.708h1.588v1.459h9.247V33.569z"/>
<path fill="#F58220" d="M30.499,29.848H19.664v-1.75h10.835V29.848z"/>
<path fill="#F58220" d="M27.741,27.368h-5.49c-1.092,0-3.033-0.105-3.033-2.437c0-2.092,1.46-2.438,3.033-2.438h5.49
	c1.475,0,2.964,0.365,2.964,2.438C30.705,27.127,29.051,27.368,27.741,27.368z M21.607,25.584h6.375c0.618,0,1.102,0,1.102-0.653
	c0-0.644-0.46-0.644-1.102-0.644h-6.375c-0.387,0-0.779,0.102-0.779,0.644C20.828,25.55,21.339,25.584,21.607,25.584z"/>
<path fill="#F58220" d="M30.499,21.648H19.664v-1.643l4.855-1.591h-4.855v-1.669h10.835v1.508l-5.746,1.764h5.746V21.648z"/>
<rect x="19.579" y="76.229" fill="#F58220" width="273.203" height="4.506"/>
</svg>
